<svg width="74" height="74" viewBox="0 0 74 74" fill="none" xmlns="http://www.w3.org/2000/svg">
<g clip-path="url(#clip0_11_5)">
<path d="M15.394 19.1331C14.8596 17.1454 12.9007 15.9121 10.4402 16.6027C7.97965 17.2934 6.91898 19.2729 7.45137 21.2606L8.22819 24.0842C8.77943 24.3453 10.0363 24.5068 10.6539 23.0641C11.2715 21.6213 12.3303 22.4629 12.7825 23.0641C14.0522 23.2656 16.4572 23.1896 15.9632 21.2843L15.9569 21.2606L15.394 19.1331Z" fill="#B64A4A"/>
<path d="M26.7222 8.39283C26.3954 6.29 24.4241 4.83672 22.0602 5.21494C19.6963 5.59522 18.2677 7.55006 18.5945 9.65289L19.2415 13.943C20.0502 14.1199 21.6676 14.1347 21.6676 12.7787C21.6676 11.4226 22.6588 11.4042 23.1545 11.5646C23.2365 12.499 23.7328 14.2089 25.0614 13.5732C26.39 12.9376 27.0251 11.9693 27.1766 11.5646L26.7222 8.39283Z" fill="#F1CEF7"/>
<path d="M42.0423 4.15633C42.1594 2.07611 40.5602 0.376165 38.1963 0.285721C35.8324 0.195276 34.1284 1.61361 34.0071 3.69178L33.7101 9.65289C34.8706 9.60009 36.0793 9.37959 35.7827 8.27781C35.9948 7.39278 36.4594 7.34505 36.8679 7.30309C36.9813 7.29144 37.0903 7.28024 37.1884 7.25171C37.9286 7.30797 38.1963 7.6624 38.1963 8.39283C38.1963 9.40088 39.5041 8.62915 40.1579 8.11728C40.8104 7.99759 41.748 7.91796 41.748 8.68748L42.0423 4.15633Z" fill="#B46E42"/>
<path fill-rule="evenodd" clip-rule="evenodd" d="M66.5486 33.3391C64.077 32.2455 60.6829 33.3803 57.9523 36.3786C57.5467 36.8239 57.1558 37.3103 56.7847 37.8366C56.1319 38.762 55.6386 39.8233 55.1699 40.8318C54.2851 42.7354 53.4877 44.4511 51.8699 44.7104C50.9243 44.8625 50.4104 44.2869 50.1432 43.4586C49.8616 42.0608 49.9233 39.9004 50.4454 36.8787L55.6307 13.5732C55.2051 14.05 54.0726 14.7174 52.947 13.5732C52.672 13.2937 52.2983 13.2298 51.8651 13.1556V13.1556C50.7982 12.9731 49.5069 13.2627 48.5012 12.8624C48.3386 12.7976 48.1976 12.7093 48.0662 12.6271C47.8618 12.4991 47.6809 12.3858 47.4782 12.3985L43.0392 32.6628C42.0258 37.7318 40.147 36.8109 40.6013 31.0697L41.748 8.68748C41.748 7.91796 40.8104 7.99759 40.1579 8.11728C39.5041 8.62915 38.1963 9.40088 38.1963 8.39283C38.1963 7.6624 37.9286 7.30797 37.1884 7.25171C37.0903 7.28024 36.9813 7.29144 36.8679 7.30309C36.4594 7.34505 35.9948 7.39278 35.7827 8.27781C36.0793 9.37959 34.8706 9.60009 33.7101 9.65289L32.634 31.2547C32.34 36.8191 30.3482 34.7224 29.9165 30.6915L27.1766 11.5646C27.0251 11.9693 26.39 12.9376 25.0614 13.5732C23.7328 14.2089 23.2365 12.499 23.1545 11.5646C22.6588 11.4042 21.6676 11.4226 21.6676 12.7787C21.6676 14.1347 20.0502 14.1199 19.2415 13.943L21.6676 30.0317C22.8865 37.8119 21.2935 39.9662 18.6706 31.5178L15.9632 21.2843C16.4572 23.1896 14.0522 23.2656 12.7825 23.0641C12.3303 22.4629 11.2715 21.6213 10.6539 23.0641C10.0363 24.5068 8.77943 24.3453 8.22819 24.0842L10.6539 32.9012C11.9921 41.2817 11.9921 44.5891 11.9921 50.3591C11.9921 56.129 14.6458 74 34.9444 74C55.243 74 59.4179 53.3807 59.6111 52.0754C59.6111 52.0754 59.8639 49.0332 61.9873 46.1863C62.9972 44.8208 64.0362 43.4773 65.1034 42.1567C66.1775 40.8275 67.2803 39.5214 68.4109 38.2395C69.0625 37.5016 69.6957 34.7307 66.5486 33.3391Z" fill="#F7DECE"/>
<path d="M56.0776 11.5646C56.5257 9.63028 55.4753 7.75767 52.947 7.14717C50.4187 6.53667 48.5173 7.77617 48.0671 9.71044L47.4782 12.3985C47.6809 12.3858 47.8618 12.4991 48.0662 12.6271C48.1976 12.7093 48.3386 12.7976 48.5012 12.8624C49.5069 13.2627 50.7982 12.9731 51.8651 13.1556V13.1556C52.2983 13.2298 52.672 13.2937 52.947 13.5732C54.0726 14.7174 55.2051 14.05 55.6307 13.5732L56.0776 11.5646Z" fill="#CEF2F7"/>
<path d="M51.2059 44.6898C50.5893 44.4391 50.0672 43.7936 50.0055 42.3897C46.1164 42.9221 40.8562 44.0115 36.8088 47.9705C31.5548 53.1073 30.6586 58.6594 30.7018 62.3738C30.7367 65.3687 32.3709 66.7871 32.8498 62.3491C33.4521 56.7436 37.5406 45.6107 51.2059 44.6898Z" fill="#E0AA94"/>
</g>
<defs>
<clipPath id="clip0_11_5">
<rect width="74" height="74" fill="white"/>
</clipPath>
</defs>
</svg>
